<svg version="1.1" viewBox="0.0 0.0 1457.0997375328084 670.0629921259842" fill="none" stroke="none" stroke-linecap="square" stroke-miterlimit="10" xmlns:xlink="http://www.w3.org/1999/xlink" xmlns="http://www.w3.org/2000/svg"><clipPath id="p.0"><path d="m0 0l1457.0997 0l0 670.063l-1457.0997 0l0 -670.063z" clip-rule="nonzero"/></clipPath><g clip-path="url(#p.0)"><path fill="#000000" fill-opacity="0.0" d="m0 0l1457.0997 0l0 670.063l-1457.0997 0z" fill-rule="evenodd"/><path fill="#245d38" d="m0 0l1120.9133 0l333.41736 333.41733l-333.41736 333.41733l-1120.9133 0l333.41733 -333.41733z" fill-rule="evenodd"/><path stroke="#000000" stroke-width="1.0" stroke-linejoin="round" stroke-linecap="butt" d="m0 0l1120.9133 0l333.41736 333.41733l-333.41736 333.41733l-1120.9133 0l333.41733 -333.41733z" fill-rule="evenodd"/><path fill="#c3002f" d="m236.34778 143.11136l0 0c0 -68.298805 56.08072 -123.66592 125.259796 -123.66592l0 0c33.220947 0 65.08127 13.029051 88.57205 36.22091c23.490753 23.19186 36.687744 54.646763 36.687744 87.44501l0 0c0 68.2988 -56.08075 123.66589 -125.259796 123.66589l0 0c-69.17908 0 -125.259796 -55.367096 -125.259796 -123.66589z" fill-rule="evenodd"/><path stroke="#000000" stroke-width="1.0" stroke-linejoin="round" stroke-linecap="butt" d="m236.34778 143.11136l0 0c0 -68.298805 56.08072 -123.66592 125.259796 -123.66592l0 0c33.220947 0 65.08127 13.029051 88.57205 36.22091c23.490753 23.19186 36.687744 54.646763 36.687744 87.44501l0 0c0 68.2988 -56.08075 123.66589 -125.259796 123.66589l0 0c-69.17908 0 -125.259796 -55.367096 -125.259796 -123.66589z" fill-rule="evenodd"/><path fill="#245d38" d="m490.39865 189.14671l-134.61942 -46.166107l134.63525 -45.90461z" fill-rule="evenodd"/><path fill="#ffd100" d="m298.91437 143.11136l0 0c0 -34.221115 28.068695 -61.962807 62.693207 -61.962807l0 0c16.627258 0 32.573517 6.528206 44.33078 18.148483c11.757233 11.620277 18.362396 27.38076 18.362396 43.814323l0 0c0 34.2211 -28.068695 61.9628 -62.693176 61.9628l0 0c-34.62451 0 -62.693207 -27.7417 -62.693207 -61.9628z" fill-rule="evenodd"/><path stroke="#000000" stroke-width="1.0" stroke-linejoin="round" stroke-linecap="butt" d="m298.91437 143.11136l0 0c0 -34.221115 28.068695 -61.962807 62.693207 -61.962807l0 0c16.627258 0 32.573517 6.528206 44.33078 18.148483c11.757233 11.620277 18.362396 27.38076 18.362396 43.814323l0 0c0 34.2211 -28.068695 61.9628 -62.693176 61.9628l0 0c-34.62451 0 -62.693207 -27.7417 -62.693207 -61.9628z" fill-rule="evenodd"/><path fill="#000000" fill-opacity="0.0" d="m490.4147 53.67848l668.063 0l0 178.86613l-668.063 0z" fill-rule="evenodd"/><path fill="#c3002f" d="m508.74283 190.67848l0 -71.06251l23.203094 0l0.9375 11.734383l-3.0625 -0.53125q1.859375 -3.4687576 4.390625 -5.8593826q2.53125 -2.40625 5.59375 -3.9375q3.078125 -1.546875 6.265625 -2.203125q3.203125 -0.671875 6.140625 -0.671875q4.9375 0 9.125 1.40625q4.203125 1.390625 7.46875 4.734375q3.265625 3.328125 5.40625 9.328133l-3.859375 -0.265625l1.0625 -1.875q2.0 -3.46875 4.734375 -5.8593826q2.734375 -2.40625 6.0625 -4.140625q3.328125 -1.734375 6.859375 -2.53125q3.546875 -0.796875 6.734375 -0.796875q8.671875 0 14.53125 3.34375q5.875 3.328125 8.796875 9.796883q2.9375 6.453125 2.9375 15.796875l0 43.59375l-24.796875 0l0 -41.59375q0 -3.46875 -1.0625 -5.796875q-1.0625 -2.34375 -3.0625 -3.53125q-2.0 -1.203125 -4.9375 -1.203125q-2.265625 0 -4.203125 0.734375q-1.9375 0.71875 -3.265625 2.125q-1.328125 1.40625 -2.140625 3.078125q-0.796875 1.65625 -0.796875 3.921875l0 42.265625l-24.796875 0l0 -41.734375q0 -3.328125 -1.0625 -5.59375q-1.0625 -2.265625 -3.0625 -3.53125q-2.0 -1.265625 -4.9375 -1.265625q-2.265625 0 -4.203125 0.734375q-1.921875 0.71875 -3.265625 2.0625q-1.328125 1.328125 -2.140625 3.0625q-0.796875 1.734375 -0.796875 3.875l0 42.390625l-24.796844 0zm130.79495 0l0 -71.06251l23.203125 0l0.9375 11.734383l-3.0625 -0.53125q1.859375 -3.4687576 4.390625 -5.8593826q2.53125 -2.40625 5.59375 -3.9375q3.078125 -1.546875 6.265625 -2.203125q3.203125 -0.671875 6.140625 -0.671875q4.9375 0 9.125 1.40625q4.203125 1.390625 7.46875 4.734375q3.265625 3.328125 5.40625 9.328133l-3.859375 -0.265625l1.0625 -1.875q2.0 -3.46875 4.734375 -5.8593826q2.734375 -2.40625 6.0625 -4.140625q3.328125 -1.734375 6.859375 -2.53125q3.546875 -0.796875 6.734375 -0.796875q8.671875 0 14.53125 3.34375q5.875 3.328125 8.796875 9.796883q2.9375 6.453125 2.9375 15.796875l0 43.59375l-24.796875 0l0 -41.59375q0 -3.46875 -1.0625 -5.796875q-1.0625 -2.34375 -3.0625 -3.53125q-2.0 -1.203125 -4.9375 -1.203125q-2.265625 0 -4.203125 0.734375q-1.9375 0.71875 -3.265625 2.125q-1.328125 1.40625 -2.140625 3.078125q-0.796875 1.65625 -0.796875 3.921875l0 42.265625l-24.796875 0l0 -41.734375q0 -3.328125 -1.0625 -5.59375q-1.0625 -2.265625 -3.0625 -3.53125q-2.0 -1.265625 -4.9375 -1.265625q-2.265625 0 -4.203125 0.734375q-1.921875 0.71875 -3.265625 2.0625q-1.328125 1.328125 -2.140625 3.0625q-0.796875 1.734375 -0.796875 3.875l0 42.390625l-24.796875 0zm154.79498 1.46875q-8.0 0 -13.609375 -3.390625q-5.59375 -3.40625 -8.53125 -9.796875q-2.921875 -6.40625 -2.921875 -15.484375l0 -43.859383l24.796875 0l0 41.328133q0 3.46875 1.203125 5.875q1.203125 2.390625 3.328125 3.65625q2.140625 1.265625 5.203125 1.265625q2.40625 0 4.328125 -0.65625q1.9375 -0.671875 3.265625 -2.0625q1.34375 -1.40625 2.140625 -3.203125q0.796875 -1.8125 0.796875 -3.9375l0 -42.265633l24.796875 0l0 71.06251l-22.921875 0l-1.34375 -14.40625l4.671875 -1.59375q-1.46875 4.9375 -5.203125 8.9375q-3.734375 4.0 -8.9375 6.265625q-5.1875 2.265625 -11.0625 2.265625zm63.72992 -1.46875l0 -71.06251l23.203125 0l1.0625 14.390633l-5.0625 1.609375q1.328125 -5.0625 5.1875 -9.000008q3.875 -3.9375 9.203125 -6.203125q5.34375 -2.265625 11.203125 -2.265625q8.0 0 13.53125 3.265625q5.546875 3.265625 8.40625 9.734383q2.875 6.46875 2.875 15.796875l0 43.734375l-24.8125 0l0 -41.734375q0 -3.46875 -1.0625 -5.796875q-1.0625 -2.328125 -3.203125 -3.53125q-2.125 -1.203125 -5.0625 -1.0625q-2.265625 0 -4.203125 0.671875q-1.921875 0.65625 -3.390625 2.0625q-1.46875 1.390625 -2.203125 3.125q-0.734375 1.734375 -0.734375 3.875l0 42.390625l-12.40625 0q-4.53125 0 -7.671875 0q-3.125 0 -4.859375 0zm87.87579 0l0 -71.06251l24.796875 0l0 71.06251l-24.796875 0zm12.390625 -84.53126q-6.796875 0 -10.53125 -3.125q-3.734375 -3.140625 -3.734375 -8.875q0 -5.328125 3.796875 -8.71875q3.796875 -3.40625 10.46875 -3.40625q6.671875 0 10.46875 3.140625q3.796875 3.125 3.796875 8.984375q0 5.328125 -3.875 8.671875q-3.859375 3.328125 -10.390625 3.328125zm36.53369 84.53126l0 -89.06251l24.796875 0l0 89.06251l-24.796875 0zm-11.734375 -50.0l0 -21.062508l48.9375 0l0 21.062508l-48.9375 0zm68.7948 80.671875l17.0625 -40.265625l0.28125 10.921875l-33.734375 -72.39063l27.734375 0l11.859375 28.265633q1.46875 3.328125 2.59375 6.59375q1.140625 3.265625 1.671875 6.203125l-2.796875 2.140625q0.53125 -1.734375 1.59375 -4.796875q1.0625 -3.078125 2.40625 -7.078125l10.796875 -31.328133l27.859375 0l-30.796875 71.06251l-12.390625 30.671875l-24.140625 0z" fill-rule="nonzero"/><path fill="#000000" fill-opacity="0.0" d="m333.4882 391.9029l735.4331 0l0 178.86615l-735.4331 0z" fill-rule="evenodd"/><path fill="#ffd100" d="m391.08194 592.9029l0 -105.796875l-42.390625 0l0 -34.203125l125.796875 0l0 34.203125l-43.796875 0l0 105.796875l-39.609375 0zm106.20001 0l0 -140.0l64.609406 0q14.203125 0 25.390625 5.796875q11.203064 5.796875 17.499939 15.796875q6.3125 10.0 6.3125 23.0q0 14.0 -6.3125 24.8125q-6.296875 10.796875 -17.499939 16.90625q-11.1875 6.09375 -25.390625 6.09375l-27.40625 0l0 47.59375l-37.203156 0zm75.00003 0l-35.59375 -63.203125l40.59375 -5.0l39.609314 68.203125l-44.609314 0zm-37.796875 -76.0l22.0 0q5.203125 0 8.703125 -2.09375q3.5 -2.109375 5.390625 -5.796875q1.90625 -3.703125 1.90625 -8.703125q0 -4.8125 -2.0 -8.3125q-2.0 -3.5 -5.90625 -5.390625q-3.890625 -1.90625 -9.6875 -1.90625l-20.40625 0l0 32.203125zm103.796875 76.0l0 -140.0l101.8125 0l0 32.59375l-63.8125 0l0 74.8125l66.8125 0l0 32.59375l-104.8125 0zm18.8125 -55.59375l0 -30.8125l75.0 0l0 30.8125l-75.0 0zm140.98755 15.390625l-12.390625 -30.796875l67.796875 -69.0l45.59375 0l-101.0 99.796875zm-28.0 40.203125l0 -140.0l39.609375 0l0 140.0l-39.609375 0zm88.609375 0l-51.203125 -67.203125l26.0 -22.390625l70.59375 89.59375l-45.390625 0zm105.79065 2.0q-15.0 0 -26.703125 -3.390625q-11.6875 -3.40625 -20.59375 -9.796875q-8.890625 -6.40625 -15.890625 -15.015625l23.1875 -26.203125q10.0 13.0 20.59375 17.3125q10.609375 4.296875 20.609375 4.296875q4.40625 0 8.0 -0.890625q3.609375 -0.90625 5.5 -3.0q1.90625 -2.109375 1.90625 -5.3125q0 -2.796875 -1.609375 -4.796875q-1.59375 -2.0 -4.390625 -3.5q-2.796875 -1.5 -6.203125 -2.703125q-3.40625 -1.203125 -6.8125 -1.890625q-3.390625 -0.703125 -6.59375 -1.515625q-11.796875 -2.59375 -20.59375 -6.59375q-8.796875 -4.0 -14.703125 -9.5q-5.890625 -5.5 -8.796875 -12.703125q-2.90625 -7.203125 -2.90625 -16.203125q0 -9.796875 4.59375 -17.984375q4.609375 -8.203125 12.203125 -14.109375q7.609375 -5.90625 17.5 -9.0q9.90625 -3.09375 20.703125 -3.09375q14.8125 0 25.203125 2.90625q10.40625 2.890625 17.5 8.296875q7.109375 5.390625 12.296875 12.59375l-23.59375 22.796875q-4.203125 -4.59375 -9.109375 -7.59375q-4.890625 -3.0 -10.09375 -4.5q-5.203125 -1.5 -10.59375 -1.5q-5.0 0 -8.703125 1.0q-3.703125 1.0 -5.703125 2.90625q-2.0 1.890625 -2.0 5.09375q0 2.796875 2.203125 4.90625q2.203125 2.09375 5.59375 3.5q3.40625 1.390625 7.296875 2.296875q3.90625 0.890625 7.109375 1.484375q11.0 2.203125 20.09375 5.703125q9.109375 3.5 15.90625 8.8125q6.796875 5.296875 10.390625 12.890625q3.609375 7.59375 3.609375 17.796875q0 15.0 -7.5 25.3125q-7.5 10.296875 -20.203125 15.59375q-12.703125 5.296875 -28.703125 5.296875z" fill-rule="nonzero"/></g></svg>